<svg width="312" height="173" viewBox="0 0 312 173" fill="none" xmlns="http://www.w3.org/2000/svg">
<g clip-path="url(#clip0)">
<path d="M205.964 60.0264C206.443 66.2174 202.087 71.7136 196.24 72.3002C191.763 72.749 187.713 70.1888 185.842 66.1903L180.535 66.658L176.528 68.591C175.612 69.0317 174.996 69.9076 174.855 70.9133C174.476 73.6249 173.79 76.2365 172.835 78.7183C172.511 79.5591 172.568 80.4972 173.008 81.2812L174.436 83.8333L178.405 86.4962C180.497 85.696 182.933 85.8879 184.936 87.2316C188.332 89.5106 189.146 94.2012 186.621 97.5021C184.447 100.346 180.405 101.128 177.329 99.2999C175.369 98.1375 174.185 96.2072 173.895 94.1444L169.497 91.1949L166.728 90.8569C165.777 90.7407 164.83 91.0678 164.138 91.7302C161.803 93.9552 159.164 95.8665 156.296 97.3967C155.33 97.9104 154.711 98.8971 154.644 99.9866L154.292 105.594L156.033 112.501C158.996 113.328 161.446 115.678 162.251 118.873C163.468 123.704 160.467 128.606 155.574 129.695C151.159 130.679 146.631 128.106 145.227 123.804C144.135 120.447 145.138 116.975 147.447 114.707L145.698 107.759L142.997 103.417C142.273 102.252 140.991 101.563 139.618 101.565C139.61 101.565 139.604 101.565 139.596 101.565C137.231 101.565 134.916 101.33 132.678 100.89C131.345 100.625 129.969 101.046 129.034 102.033L125.465 105.799L121.469 114.088C122.405 115.989 122.488 118.284 121.499 120.341C119.72 124.029 115.184 125.494 111.558 123.456C108.455 121.706 107.111 117.846 108.463 114.548C109.385 112.298 111.296 110.795 113.459 110.292L117.479 101.949L118.268 96.3504C118.412 95.3177 118.017 94.2769 117.206 93.6226C114.008 91.0273 111.266 87.8939 109.122 84.3578C108.59 83.4791 107.633 82.9465 106.605 82.9384L101.015 82.8844L94.8939 84.8092C94.464 88.6158 91.8579 91.9978 87.9703 93.2198C82.7471 94.8635 77.1833 91.9924 75.4882 86.8017C73.7932 81.6137 76.6562 75.9391 81.8387 74.2251C85.4668 73.0247 89.2787 74.0223 91.8579 76.4744L98.3544 74.4305L103.099 71.0485C103.805 70.5483 104.18 69.7103 104.11 68.8506C104.032 67.8962 103.991 66.9338 103.991 65.9605C103.991 60.6725 105.154 55.6521 107.23 51.1373C107.533 50.4749 107.525 49.7126 107.206 49.0583L105.8 46.1845L101.985 43.3053C99.8494 43.9893 97.4298 43.6622 95.5049 42.2104C92.2391 39.7448 91.6876 35.0164 94.391 31.8614C96.7187 29.1444 100.798 28.5875 103.769 30.5827C105.662 31.8533 106.738 33.8431 106.911 35.9194L111.139 39.1095L115.4 39.8692C118.501 36.9899 122.115 34.6568 126.087 33.0212L127.087 26.9438L125.825 20.6663C122.088 19.7038 119.055 16.8408 118.239 13.0235C117.087 7.63005 120.793 2.37718 126.519 1.29308C132.243 0.208978 137.817 3.69918 138.969 9.09264C139.831 13.129 137.974 17.0842 134.584 19.274L135.776 25.1946L138.704 29.8662C138.896 30.1717 139.231 30.3556 139.591 30.3556H139.596C146.301 30.3556 152.578 32.221 157.939 35.4598C158.234 35.6355 158.596 35.6598 158.907 35.5138L163.492 33.3889L168.845 27.598C168.523 25.5217 169.115 23.3211 170.654 21.6585C173.433 18.6549 178.191 18.5792 181.062 21.5828C183.579 24.2187 183.676 28.4226 181.287 31.1747C179.74 32.9563 177.521 33.7782 175.352 33.616L170 39.4069L168.261 44.0839C168.14 44.4083 168.194 44.7706 168.396 45.0517C170.508 47.9499 172.192 51.1779 173.355 54.6437C173.676 55.5954 174.433 56.3361 175.401 56.6092L179.754 57.8284L185.409 57.3283C186.796 53.3298 190.259 50.3046 194.512 49.8775C200.36 49.2908 205.488 53.8354 205.964 60.0264Z" fill="#5E74FF"/>
<path d="M139.596 92.325C154.157 92.325 165.96 80.5212 165.96 65.9605C165.96 51.3999 154.157 39.5961 139.596 39.5961C125.035 39.5961 113.232 51.3999 113.232 65.9605C113.232 80.5212 125.035 92.325 139.596 92.325Z" fill="#8A9BFF"/>
<path d="M121.268 65.9605C121.268 52.7656 130.96 41.8351 143.614 39.9002C142.304 39.6999 140.962 39.5961 139.596 39.5961C125.035 39.5961 113.232 51.3995 113.232 65.9605C113.232 80.5215 125.035 92.325 139.596 92.325C140.962 92.325 142.304 92.2211 143.614 92.0208C130.96 90.0857 121.268 79.1552 121.268 65.9605Z" fill="#4963FF"/>
<path d="M95.2364 18.0301C99.3829 18.0301 102.744 14.6687 102.744 10.5222C102.744 6.37577 99.3829 3.01439 95.2364 3.01439C91.0899 3.01439 87.7286 6.37577 87.7286 10.5222C87.7286 14.6687 91.0899 18.0301 95.2364 18.0301Z" fill="#5D74FF"/>
<path d="M93.1842 114.447C95.923 114.447 98.1432 112.226 98.1432 109.488C98.1432 106.749 95.923 104.529 93.1842 104.529C90.4454 104.529 88.2252 106.749 88.2252 109.488C88.2252 112.226 90.4454 114.447 93.1842 114.447Z" fill="#5D74FF"/>
<path d="M184.235 124.938C188.269 124.938 191.539 121.668 191.539 117.634C191.539 113.6 188.269 110.329 184.235 110.329C180.201 110.329 176.93 113.6 176.93 117.634C176.93 121.668 180.201 124.938 184.235 124.938Z" fill="#5D74FF"/>
<path d="M131.503 65.4996C135.264 65.4996 138.313 62.4507 138.313 58.6898C138.313 54.9288 135.264 51.88 131.503 51.88C127.743 51.88 124.694 54.9288 124.694 58.6898C124.694 62.4507 127.743 65.4996 131.503 65.4996Z" fill="#5D74FF"/>
<path d="M136.97 84.4767C139.53 84.4767 141.605 82.4015 141.605 79.8416C141.605 77.2817 139.53 75.2065 136.97 75.2065C134.41 75.2065 132.335 77.2817 132.335 79.8416C132.335 82.4015 134.41 84.4767 136.97 84.4767Z" fill="#5D74FF"/>
<path d="M151.524 69.8528C153.674 69.8528 155.417 68.1101 155.417 65.9605C155.417 63.8109 153.674 62.0683 151.524 62.0683C149.375 62.0683 147.632 63.8109 147.632 65.9605C147.632 68.1101 149.375 69.8528 151.524 69.8528Z" fill="#5D74FF"/>
</g>
<g clip-path="url(#clip1)">
<path d="M290.98 133.992C291.243 137.394 288.849 140.415 285.635 140.738C283.175 140.984 280.949 139.577 279.921 137.379L277.004 137.636L274.802 138.699C274.298 138.941 273.959 139.423 273.882 139.975C273.674 141.466 273.297 142.901 272.772 144.265C272.594 144.727 272.625 145.243 272.867 145.674L273.652 147.076L275.833 148.54C276.983 148.1 278.322 148.206 279.423 148.944C281.289 150.197 281.737 152.775 280.349 154.589C279.154 156.152 276.933 156.582 275.242 155.577C274.164 154.938 273.514 153.877 273.355 152.743L270.937 151.122L269.416 150.937C268.893 150.873 268.372 151.053 267.992 151.417C266.708 152.639 265.258 153.69 263.682 154.531C263.151 154.813 262.811 155.356 262.774 155.954L262.58 159.036L263.537 162.833C265.166 163.287 266.512 164.579 266.955 166.335C267.624 168.99 265.974 171.684 263.285 172.283C260.858 172.824 258.369 171.409 257.598 169.045C256.998 167.2 257.549 165.292 258.818 164.045L257.857 160.226L256.372 157.84C255.974 157.2 255.27 156.821 254.515 156.822C254.511 156.822 254.508 156.822 254.503 156.822C253.203 156.822 251.931 156.693 250.701 156.451C249.968 156.305 249.212 156.537 248.698 157.079L246.736 159.149L244.54 163.705C245.054 164.749 245.1 166.011 244.557 167.142C243.579 169.168 241.086 169.974 239.093 168.853C237.387 167.892 236.649 165.77 237.392 163.957C237.898 162.721 238.949 161.895 240.138 161.619L242.347 157.033L242.781 153.956C242.86 153.388 242.643 152.816 242.197 152.457C240.439 151.03 238.933 149.308 237.754 147.365C237.462 146.882 236.936 146.589 236.371 146.584L233.298 146.555L229.934 147.613C229.698 149.705 228.265 151.564 226.129 152.235C223.258 153.139 220.2 151.561 219.268 148.708C218.337 145.856 219.91 142.738 222.759 141.795C224.753 141.136 226.848 141.684 228.265 143.032L231.836 141.908L234.444 140.05C234.832 139.775 235.038 139.314 234.999 138.842C234.956 138.317 234.934 137.788 234.934 137.253C234.934 134.347 235.573 131.587 236.714 129.106C236.881 128.742 236.876 128.323 236.701 127.963L235.928 126.384L233.832 124.801C232.658 125.177 231.328 124.998 230.27 124.2C228.475 122.844 228.172 120.246 229.658 118.512C230.937 117.018 233.179 116.712 234.812 117.809C235.852 118.507 236.444 119.601 236.539 120.742L238.863 122.495L241.205 122.913C242.909 121.33 244.895 120.048 247.078 119.149L247.628 115.809L246.934 112.359C244.881 111.83 243.213 110.256 242.765 108.158C242.132 105.194 244.169 102.307 247.316 101.711C250.462 101.115 253.525 103.033 254.158 105.997C254.632 108.216 253.612 110.39 251.748 111.593L252.404 114.847L254.013 117.415C254.118 117.583 254.303 117.684 254.5 117.684H254.503C258.188 117.684 261.638 118.709 264.585 120.489C264.747 120.586 264.946 120.599 265.117 120.519L267.637 119.351L270.579 116.168C270.402 115.027 270.728 113.818 271.573 112.904C273.101 111.253 275.716 111.211 277.294 112.862C278.677 114.311 278.731 116.622 277.417 118.134C276.567 119.113 275.347 119.565 274.156 119.476L271.213 122.659L270.258 125.229C270.191 125.408 270.221 125.607 270.332 125.761C271.493 127.354 272.419 129.128 273.057 131.033C273.234 131.556 273.65 131.963 274.182 132.113L276.575 132.784L279.683 132.509C280.445 130.311 282.349 128.648 284.686 128.414C287.9 128.091 290.719 130.589 290.98 133.992Z" fill="#5E74FF"/>
<path d="M254.503 151.744C262.506 151.744 268.994 145.256 268.994 137.253C268.994 129.25 262.506 122.763 254.503 122.763C246.5 122.763 240.013 129.25 240.013 137.253C240.013 145.256 246.5 151.744 254.503 151.744Z" fill="#8A9BFF"/>
<path d="M244.429 137.253C244.429 130.001 249.757 123.993 256.712 122.93C255.991 122.82 255.254 122.763 254.503 122.763C246.5 122.763 240.013 129.25 240.013 137.253C240.013 145.256 246.5 151.744 254.503 151.744C255.254 151.744 255.991 151.686 256.712 151.576C249.757 150.513 244.429 144.505 244.429 137.253Z" fill="#4963FF"/>
<path d="M230.122 110.91C232.401 110.91 234.249 109.062 234.249 106.783C234.249 104.504 232.401 102.657 230.122 102.657C227.843 102.657 225.996 104.504 225.996 106.783C225.996 109.062 227.843 110.91 230.122 110.91Z" fill="#5D74FF"/>
<path d="M228.994 163.902C230.5 163.902 231.72 162.682 231.72 161.176C231.72 159.671 230.5 158.451 228.994 158.451C227.489 158.451 226.269 159.671 226.269 161.176C226.269 162.682 227.489 163.902 228.994 163.902Z" fill="#5D74FF"/>
<path d="M279.037 169.668C281.255 169.668 283.052 167.871 283.052 165.654C283.052 163.436 281.255 161.639 279.037 161.639C276.82 161.639 275.023 163.436 275.023 165.654C275.023 167.871 276.82 169.668 279.037 169.668Z" fill="#5D74FF"/>
<path d="M250.055 137C252.122 137 253.798 135.324 253.798 133.257C253.798 131.19 252.122 129.514 250.055 129.514C247.988 129.514 246.313 131.19 246.313 133.257C246.313 135.324 247.988 137 250.055 137Z" fill="#5D74FF"/>
<path d="M253.06 147.43C254.467 147.43 255.607 146.289 255.607 144.882C255.607 143.475 254.467 142.335 253.06 142.335C251.653 142.335 250.512 143.475 250.512 144.882C250.512 146.289 251.653 147.43 253.06 147.43Z" fill="#5D74FF"/>
<path d="M261.059 139.392C262.241 139.392 263.198 138.435 263.198 137.253C263.198 136.072 262.241 135.114 261.059 135.114C259.878 135.114 258.92 136.072 258.92 137.253C258.92 138.435 259.878 139.392 261.059 139.392Z" fill="#5D74FF"/>
</g>
<g clip-path="url(#clip2)">
<path d="M60.9833 127.951C61.2061 130.834 59.178 133.393 56.4551 133.667C54.3704 133.875 52.4846 132.683 51.6134 130.821L49.1423 131.039L47.2766 131.939C46.8498 132.145 46.5628 132.552 46.4974 133.021C46.3211 134.283 46.0014 135.499 45.557 136.655C45.4059 137.047 45.4324 137.483 45.6376 137.848L46.3022 139.037L48.1503 140.277C49.1246 139.904 50.2589 139.994 51.1917 140.619C52.7729 141.681 53.1518 143.865 51.976 145.402C50.9639 146.726 49.0818 147.09 47.6492 146.239C46.7366 145.698 46.1852 144.799 46.0505 143.838L44.0023 142.465L42.7132 142.307C42.2701 142.253 41.8295 142.406 41.5072 142.714C40.4195 143.75 39.1908 144.64 37.8552 145.353C37.4058 145.592 37.1175 146.051 37.086 146.559L36.9224 149.17L37.7331 152.386C39.1128 152.771 40.2533 153.865 40.6285 155.353C41.195 157.603 39.7976 159.885 37.5191 160.392C35.4633 160.851 33.3547 159.652 32.7013 157.649C32.1928 156.086 32.6598 154.469 33.7349 153.413L32.9204 150.178L31.6628 148.156C31.3254 147.614 30.7287 147.293 30.0892 147.294C30.0854 147.294 30.0829 147.294 30.0791 147.294C28.9776 147.294 27.9 147.184 26.8576 146.979C26.237 146.856 25.5962 147.052 25.1607 147.512L23.499 149.265L21.6383 153.125C22.0739 154.01 22.1129 155.079 21.6522 156.037C20.8238 157.754 18.7114 158.436 17.0233 157.487C15.5781 156.672 14.9524 154.875 15.5819 153.339C16.0112 152.292 16.9012 151.592 17.9083 151.358L19.7802 147.473L20.1478 144.865C20.2145 144.385 20.0307 143.9 19.6531 143.595C18.1638 142.387 16.8873 140.928 15.889 139.281C15.641 138.872 15.1954 138.624 14.717 138.62L12.1137 138.595L9.26358 139.491C9.06341 141.264 7.84986 142.839 6.03959 143.408C3.60744 144.173 1.01667 142.836 0.227359 140.419C-0.561957 138.003 0.771194 135.361 3.18446 134.563C4.87387 134.004 6.64889 134.468 7.84986 135.61L10.8749 134.659L13.0843 133.084C13.4128 132.851 13.5878 132.461 13.5551 132.06C13.5186 131.616 13.4997 131.168 13.4997 130.714C13.4997 128.252 14.041 125.914 15.0078 123.812C15.1488 123.504 15.145 123.149 14.9965 122.844L14.3419 121.506L12.5656 120.165C11.5711 120.484 10.4444 120.331 9.54808 119.655C8.02736 118.507 7.77055 116.305 9.02942 114.836C10.1133 113.571 12.013 113.312 13.3965 114.241C14.2777 114.832 14.7787 115.759 14.8593 116.726L16.8282 118.211L18.8122 118.565C20.2561 117.224 21.9392 116.138 23.7885 115.376L24.2543 112.546L23.6664 109.623C21.9266 109.175 20.5142 107.842 20.134 106.064C19.5977 103.553 21.3236 101.107 23.9899 100.602C26.655 100.097 29.2508 101.723 29.787 104.234C30.1886 106.113 29.3238 107.955 27.7451 108.975L28.3003 111.732L29.6637 113.907C29.7531 114.049 29.9092 114.135 30.0766 114.135H30.0791C33.2011 114.135 36.1242 115.004 38.6206 116.512C38.7578 116.594 38.9265 116.605 39.0713 116.537L41.2063 115.548L43.6989 112.851C43.5491 111.884 43.8248 110.859 44.5411 110.085C45.8352 108.687 48.0508 108.651 49.3877 110.05C50.5598 111.277 50.6051 113.235 49.4922 114.516C48.7722 115.346 47.7386 115.729 46.729 115.653L44.2364 118.35L43.427 120.528C43.3703 120.679 43.3955 120.847 43.4899 120.978C44.4731 122.328 45.2574 123.831 45.7987 125.445C45.9485 125.888 46.301 126.233 46.7517 126.36L48.7785 126.928L51.412 126.695C52.0578 124.833 53.6704 123.424 55.6507 123.225C58.3736 122.952 60.7617 125.068 60.9833 127.951Z" fill="#5E74FF"/>
<path d="M30.0791 142.991C36.8593 142.991 42.3557 137.495 42.3557 130.714C42.3557 123.934 36.8593 118.438 30.0791 118.438C23.2989 118.438 17.8025 123.934 17.8025 130.714C17.8025 137.495 23.2989 142.991 30.0791 142.991Z" fill="#8A9BFF"/>
<path d="M21.5444 130.714C21.5444 124.57 26.0577 119.48 31.95 118.58C31.34 118.486 30.7152 118.438 30.0791 118.438C23.2988 118.438 17.8025 123.934 17.8025 130.714C17.8025 137.495 23.2988 142.991 30.0791 142.991C30.7152 142.991 31.34 142.943 31.95 142.849C26.0579 141.948 21.5444 136.859 21.5444 130.714Z" fill="#4963FF"/>
<path d="M9.42307 108.396C11.3539 108.396 12.9191 106.83 12.9191 104.9C12.9191 102.969 11.3539 101.404 9.42307 101.404C7.49227 101.404 5.92705 102.969 5.92705 104.9C5.92705 106.83 7.49227 108.396 9.42307 108.396Z" fill="#5D74FF"/>
<path d="M8.46747 153.292C9.74278 153.292 10.7766 152.258 10.7766 150.983C10.7766 149.707 9.74278 148.674 8.46747 148.674C7.19216 148.674 6.15831 149.707 6.15831 150.983C6.15831 152.258 7.19216 153.292 8.46747 153.292Z" fill="#5D74FF"/>
<path d="M50.865 158.177C52.7435 158.177 54.2663 156.654 54.2663 154.776C54.2663 152.898 52.7435 151.375 50.865 151.375C48.9866 151.375 47.4638 152.898 47.4638 154.776C47.4638 156.654 48.9866 158.177 50.865 158.177Z" fill="#5D74FF"/>
<path d="M26.3108 130.5C28.0621 130.5 29.4818 129.08 29.4818 127.329C29.4818 125.578 28.0621 124.158 26.3108 124.158C24.5595 124.158 23.1398 125.578 23.1398 127.329C23.1398 129.08 24.5595 130.5 26.3108 130.5Z" fill="#5D74FF"/>
<path d="M28.8562 139.336C30.0482 139.336 31.0146 138.37 31.0146 137.178C31.0146 135.986 30.0482 135.02 28.8562 135.02C27.6642 135.02 26.6979 135.986 26.6979 137.178C26.6979 138.37 27.6642 139.336 28.8562 139.336Z" fill="#5D74FF"/>
<path d="M35.6335 132.527C36.6345 132.527 37.4459 131.715 37.4459 130.714C37.4459 129.713 36.6345 128.902 35.6335 128.902C34.6325 128.902 33.8211 129.713 33.8211 130.714C33.8211 131.715 34.6325 132.527 35.6335 132.527Z" fill="#5D74FF"/>
</g>
<g clip-path="url(#clip3)">
<path d="M311.988 44.2451C312.142 46.23 310.746 47.9921 308.871 48.1802C307.435 48.3241 306.137 47.5033 305.537 46.2213L303.836 46.3713L302.551 46.991C302.257 47.1323 302.06 47.4131 302.015 47.7356C301.893 48.6049 301.673 49.4422 301.367 50.2379C301.263 50.5075 301.281 50.8083 301.423 51.0596L301.88 51.8778L303.153 52.7316C303.824 52.475 304.604 52.5366 305.247 52.9674C306.335 53.6981 306.596 55.2019 305.787 56.2602C305.09 57.1721 303.794 57.4226 302.808 56.8366C302.179 56.4639 301.8 55.845 301.707 55.1837L300.297 54.2381L299.409 54.1297C299.104 54.0924 298.801 54.1973 298.579 54.4097C297.83 55.123 296.984 55.7358 296.064 56.2264C295.755 56.3911 295.556 56.7075 295.535 57.0568L295.422 58.8545L295.98 61.069C296.93 61.3343 297.715 62.0875 297.974 63.112C298.364 64.6609 297.402 66.2324 295.833 66.5817C294.417 66.8972 292.966 66.072 292.516 64.693C292.166 63.6165 292.487 62.5035 293.227 61.7763L292.666 59.5487L291.801 58.1567C291.568 57.7831 291.157 57.5621 290.717 57.563C290.715 57.563 290.713 57.563 290.71 57.563C289.952 57.563 289.21 57.4876 288.492 57.3463C288.065 57.2613 287.624 57.3966 287.324 57.7129L286.18 58.9203L284.899 61.5778C285.198 62.1872 285.225 62.9231 284.908 63.5827C284.338 64.7649 282.883 65.2347 281.721 64.5812C280.726 64.0204 280.295 62.7826 280.729 61.7252C281.024 61.004 281.637 60.5221 282.33 60.3609L283.619 57.6861L283.872 55.891C283.918 55.5599 283.792 55.2262 283.532 55.0164C282.506 54.1843 281.627 53.1797 280.94 52.046C280.769 51.7643 280.462 51.5935 280.133 51.5909L278.341 51.5736L276.378 52.1908C276.24 53.4112 275.405 54.4955 274.158 54.8873C272.484 55.4143 270.7 54.4938 270.157 52.8296C269.613 51.1662 270.531 49.3469 272.193 48.7974C273.356 48.4125 274.578 48.7323 275.405 49.5185L277.488 48.8632L279.009 47.7789C279.235 47.6186 279.356 47.3499 279.333 47.0742C279.308 46.7683 279.295 46.4597 279.295 46.1476C279.295 44.4523 279.668 42.8427 280.333 41.3952C280.43 41.1828 280.428 40.9384 280.325 40.7286L279.875 39.8072L278.652 38.8841C277.967 39.1034 277.191 38.9986 276.574 38.5331C275.527 37.7426 275.35 36.2266 276.217 35.2151C276.963 34.344 278.271 34.1655 279.224 34.8051C279.831 35.2125 280.176 35.8505 280.231 36.5161L281.587 37.5389L282.953 37.7825C283.947 36.8594 285.106 36.1113 286.379 35.587L286.7 33.6385L286.295 31.6258C285.097 31.3173 284.125 30.3994 283.863 29.1755C283.493 27.4463 284.682 25.7621 286.518 25.4146C288.353 25.067 290.14 26.186 290.509 27.9152C290.786 29.2093 290.19 30.4774 289.103 31.1794L289.485 33.0777L290.424 34.5754C290.486 34.6734 290.593 34.7323 290.708 34.7323H290.71C292.86 34.7323 294.872 35.3304 296.591 36.3688C296.686 36.4251 296.802 36.4329 296.902 36.3861L298.372 35.7048L300.088 33.8482C299.985 33.1825 300.174 32.477 300.668 31.9439C301.559 30.981 303.084 30.9567 304.005 31.9197C304.812 32.7648 304.843 34.1126 304.077 34.995C303.581 35.5662 302.869 35.8296 302.174 35.7776L300.458 37.6343L299.901 39.1338C299.862 39.2378 299.879 39.3539 299.944 39.4441C300.621 40.3732 301.161 41.4082 301.534 42.5194C301.637 42.8245 301.879 43.062 302.19 43.1495L303.585 43.5404L305.398 43.3801C305.843 42.0981 306.953 41.1282 308.317 40.9912C310.192 40.8032 311.836 42.2602 311.988 44.2451Z" fill="#5E74FF"/>
<path d="M290.71 54.6004C295.379 54.6004 299.163 50.816 299.163 46.1477C299.163 41.4793 295.379 37.6949 290.71 37.6949C286.042 37.6949 282.257 41.4793 282.257 46.1477C282.257 50.816 286.042 54.6004 290.71 54.6004Z" fill="#8A9BFF"/>
<path d="M284.834 46.1477C284.834 41.9172 287.941 38.4128 291.998 37.7924C291.578 37.7282 291.148 37.6949 290.71 37.6949C286.042 37.6949 282.257 41.4792 282.257 46.1477C282.257 50.8161 286.042 54.6004 290.71 54.6004C291.148 54.6004 291.578 54.5671 291.998 54.5029C287.941 53.8824 284.834 50.378 284.834 46.1477Z" fill="#4963FF"/>
<path d="M276.488 30.7806C277.817 30.7806 278.895 29.703 278.895 28.3735C278.895 27.0441 277.817 25.9664 276.488 25.9664C275.159 25.9664 274.081 27.0441 274.081 28.3735C274.081 29.703 275.159 30.7806 276.488 30.7806Z" fill="#5D74FF"/>
<path d="M275.83 61.6928C276.708 61.6928 277.42 60.981 277.42 60.1029C277.42 59.2248 276.708 58.513 275.83 58.513C274.952 58.513 274.24 59.2248 274.24 60.1029C274.24 60.981 274.952 61.6928 275.83 61.6928Z" fill="#5D74FF"/>
<path d="M305.022 65.0564C306.315 65.0564 307.364 64.008 307.364 62.7146C307.364 61.4213 306.315 60.3728 305.022 60.3728C303.728 60.3728 302.68 61.4213 302.68 62.7146C302.68 64.008 303.728 65.0564 305.022 65.0564Z" fill="#5D74FF"/>
<path d="M288.116 45.9999C289.321 45.9999 290.299 45.0224 290.299 43.8166C290.299 42.6108 289.321 41.6333 288.116 41.6333C286.91 41.6333 285.932 42.6108 285.932 43.8166C285.932 45.0224 286.91 45.9999 288.116 45.9999Z" fill="#5D74FF"/>
<path d="M289.868 52.0841C290.689 52.0841 291.354 51.4188 291.354 50.5981C291.354 49.7773 290.689 49.112 289.868 49.112C289.047 49.112 288.382 49.7773 288.382 50.5981C288.382 51.4188 289.047 52.0841 289.868 52.0841Z" fill="#5D74FF"/>
<path d="M294.535 47.3955C295.224 47.3955 295.782 46.8368 295.782 46.1477C295.782 45.4585 295.224 44.8998 294.535 44.8998C293.845 44.8998 293.287 45.4585 293.287 46.1477C293.287 46.8368 293.845 47.3955 294.535 47.3955Z" fill="#5D74FF"/>
</g>
<defs>
<clipPath id="clip0">
<rect x="75" width="131" height="131" fill="white"/>
</clipPath>
<clipPath id="clip1">
<rect x="219" y="101" width="72" height="72" fill="white"/>
</clipPath>
<clipPath id="clip2">
<rect y="100" width="61" height="61" fill="white"/>
</clipPath>
<clipPath id="clip3">
<rect x="270" y="25" width="42" height="42" fill="white"/>
</clipPath>
</defs>
</svg>
